<?xml version="1.0" encoding="UTF-8"?>
<!-- Generator: Adobe Illustrator 24.0.3, SVG Export Plug-In . SVG Version: 6.00 Build 0)  -->
<svg xmlns="http://www.w3.org/2000/svg" xmlns:xlink="http://www.w3.org/1999/xlink" version="1.1" x="0px" y="0px" viewBox="0 0 557 54" xml:space="preserve">
<path fill="#FFFFFF" d="M58.5,6C54,6,54,11,54,11v26c0,5-5,5-5,5h-8c-5,0-5-5-5-5V18.9C36,8.2,32.7,6,23.1,6H12.9  C2.2,6,0,9.3,0,18.9V49c0,0,0,5,4.5,5C9,54,9,49,9,49V23c0-5,5-5,5-5h8c5,0,5,5,5,5v18.5c0.1,9.4,2.8,12.1,10.2,12.5h12.9  C60.8,54,63,50.7,63,41.1V11C63,11,63,6,58.5,6z"></path>
<path fill="#FFFFFF" d="M120.1,6H82.9C72.2,6,70,9.3,70,18.9v22.2C70,51.8,73.3,54,82.9,54H128c0,0,5,0,5-6s-5-6-5-6H84  c-5,0-5-5-5-5V23c0-5,5-5,5-5h35c5,0,5,7,0,7H87c0,0-5,0-5,4.5c0,4.5,5,4.5,5,4.5s34.4,0,33.1,0c10.7,0,12.9-3.3,12.9-12.9v-2.2  C133,8.2,129.7,6,120.1,6z"></path>
<path fill="#FFFFFF" d="M260.1,6h-43.6c0,0-6.6,0-6.6,6s6.6,6,6.6,6H259c5,0,5,7,0,7c0,0-37.4,0-36.1,0c-10.7,0-12.9,3.3-12.9,12.9  v3.2c0,10.7,3.3,12.9,12.9,12.9h43.6c0,0,6.6,0,6.6-6s-6.6-6-6.6-6h-41.3c-6.1,0-6.1-8,0-8c-0.9,0,35.1,0,35.1,0  c10.6,0,12.8-3.3,12.8-12.9v-2.2C273,8.2,269.7,6,260.1,6z"></path>
<path fill="#FFFFFF" d="M324.3,6h-31.4C282.2,6,280,9.3,280,18.9V49c0,0,0,5,4.5,5c4.5,0,4.5-5,4.5-5V23c0-5,5-5,5-5h30.3  c0,0,6.7,0,6.7-6S324.3,6,324.3,6z"></path>
<path fill="#FFFFFF" d="M417,49c0,0,0,5-4.5,5c-4.5,0-4.5-5-4.5-5V11c0,0,0-5,4.5-5c4.5,0,4.5,5,4.5,5V49z"></path>
<path id="_x3C_Pfad_x3E_" fill="#FFFFFF" d="M387,25h-32c0,0-5,0-5,4.5c0,4.5,5,4.5,5,4.5h33.1c10.7,0,12.9-3.3,12.9-12.9v-2.2  C401,8.2,397.7,6,388.1,6h-37.3C340.2,6,338,9.3,338,18.9v22.2c0,10.7,3.3,12.9,12.9,12.9H396c0,0,5,0,5-6s-5-6-5-6h-44  c-5,0-5-5-5-5V23c0-5,5-5,5-5h35C392,18,392,25,387,25z"></path>
<path fill="#FFFFFF" d="M482,42h-44c-5,0-5-5-5-5V23c0-5,5-5,5-5h44c0,0,5,0,5-6s-5-6-5-6h-45.1C426.2,6,424,9.3,424,18.9v22.2  c0,10.7,3.3,12.9,12.9,12.9H482c0,0,5,0,5-6S482,42,482,42z"></path>
<path fill="#FFFFFF" d="M198.1,42H154c-5,0-5-5-5-5l0-19h5l44.1,0c0,0,4.9,0,4.9-6s-4.9-6-4.9-6H149V5c0,0,0-5-4.5-5  C140,0,140,5,140,5v36.1c0,10.7,3.3,12.9,12.9,12.9h45.2c0,0,4.9,0,4.9-6S198.1,42,198.1,42z"></path>
<path fill="#FFFFFF" d="M544.1,6H503V5c0,0,0-5-4.5-5C494,0,494,5,494,5v44c0,0,0,5,4.5,5c4.5,0,4.5-5,4.5-5l0-31l40,0c5,0,5,5,5,5  v26c0,0,0,5,4.5,5c4.5,0,4.5-5,4.5-5V18.9C557,8.2,553.7,6,544.1,6z"></path>
</svg>
